<?xml version="1.0" encoding="utf-8"?>
<!-- Svg Vector Icons : http://www.onlinewebfonts.com/icon -->
<!DOCTYPE svg PUBLIC "-//W3C//DTD SVG 1.1//EN" "http://www.w3.org/Graphics/SVG/1.1/DTD/svg11.dtd">
<svg version="1.1" xmlns="http://www.w3.org/2000/svg" xmlns:xlink="http://www.w3.org/1999/xlink" x="0px" y="0px" viewBox="0 0 1000 1000" enable-background="new 0 0 1000 1000" xml:space="preserve">
<metadata> Svg Vector Icons : http://www.onlinewebfonts.com/icon </metadata>
<g><g transform="translate(0.000000,511.000000) scale(0.100000,-0.100000)"><path d="M1362.1,4986.8c-141.4-57-227.9-164.6-257.4-324.9C1092,4594.4,1267.1,3695.6,1995,52c497.9-2489.6,915.6-4550.8,928.3-4582.5c31.6-76,189.9-221.5,265.8-242.6c31.6-8.4,856.6-16.9,1831.3-16.9h1772.2l97,57c198.3,116,109.7-267.9,1116.1,4772.4c858.7,4293.4,909.3,4561.4,886.1,4652.1c-31.7,128.7-105.5,219.4-217.3,274.3l-90.7,44.3l-3586.7-2.1C2805.2,5007.9,1393.7,4999.5,1362.1,4986.8z M8541.7,4632.4c14.7-23.2-1780.7-9013-1808.1-9046.8c-29.6-38-3443.2-40.1-3466.4-2.1c-23.2,38-1816.5,9013-1806,9042.6C1469.7,4655.6,8522.7,4664,8541.7,4632.4z"/></g></g>
</svg>