<?xml version="1.0" encoding="utf-8"?>
<!-- Svg Vector Icons : http://www.onlinewebfonts.com/icon -->
<!DOCTYPE svg PUBLIC "-//W3C//DTD SVG 1.1//EN" "http://www.w3.org/Graphics/SVG/1.1/DTD/svg11.dtd">
<svg version="1.1" xmlns="http://www.w3.org/2000/svg" xmlns:xlink="http://www.w3.org/1999/xlink" x="0px" y="0px" viewBox="0 0 1000 1000" enable-background="new 0 0 1000 1000" xml:space="preserve">
<metadata> Svg Vector Icons : http://www.onlinewebfonts.com/icon </metadata>
<g><g transform="translate(0.000000,511.000000) scale(0.100000,-0.100000)"><path d="M1192.8,4994.7c-15.3-6.6-41.6-39.4-61.3-74.5c-30.7-61.3,11-284.7,889.1-4679.9c1000.8-4997.4,943.9-4750,1119.1-4890.1c188.3-148.9,81-140.2,1848.3-140.2c1578.9,0,1600.8,0,1699.4,46c135.8,63.5,249.7,168.6,304.4,280.3c28.5,63.5,354.8,1640.2,963.6,4690.8c505.9,2527.2,919.8,4614.2,919.8,4636.1s-24.1,63.5-54.8,92l-52.6,54.8l-3773.2-2.2C2918.5,5007.8,1208.2,5001.2,1192.8,4994.7z"/></g></g>
</svg>